<?xml version='1.0' encoding='utf-8'?>
<svg xmlns="http://www.w3.org/2000/svg" xml:space="preserve"
	width="611" height="410" font-family="sans-serif" font-size="9pt"
	style="overflow:visible;line-height:1.25" version="1.1"
	viewBox="69 -5 611 410"><g stroke="#000" stroke-width="5"><g><g><path fill="#fff"
	stroke-width="2.206"
	d="M612.655 237.711s-20.156-60.367-31.516-77.023c-15.007-22.008-37.696-46.796-46.2-50.295s-36.018-4.104-43.021-1.103c-7.003 3.001-29.853 23.449-47.361 28.45s-120.043 2.5-134.051.5-21.07-2.398-33.076-10.4-17.993-17.83-21.996-19.83c-4.001-2-33.311-1.72-40.815 1.28-7.504 3.001-32.398 26.773-50.908 57.283-18.509 30.51-38.252 97.537-40.138 113.156-3.502 29.01-1.824 52.664-.942 57.517s7.483 38.23 32.178 48.618c31.996 13.46 77.51-14.18 110.085-26.94 33.941-13.295 41.93-12.175 65.622-12.175 47.025 0 43.511-.5 90.547-.5 48.023 0 87.984 25.288 109.997 33.79s38.137 14.607 59.15 1.103 29.455-39.394 32.457-65.402-10.005-78.026-10.005-78.026z" /></g></g></g><g><ellipse
	cx="296.693" cy="310.883" fill="#f2f2f2" rx="58.312" ry="47.365" /></g><g><ellipse
	cx="296.693" cy="310.883" fill="#fff" rx="56.22" ry="45.662" /></g><g><ellipse
	cx="445.653" cy="311.505" fill="#f2f2f2" rx="53.683" ry="39.853" /></g><g><ellipse
	cx="445.653" cy="311.505" fill="#fff" rx="51.755" ry="38.421" /></g><g><path
	fill="#f2f2f2"
	d="M223.755 195.734c-31.117-5.507-59.185 9.374-62.684 33.236-3.502 23.862 18.883 47.67 49.999 53.176s59.185-9.374 62.684-33.236c3.503-23.863-18.883-47.67-49.999-53.176z" /></g><g><path
	fill="#fff"
	d="M223.53 197.287c-30-5.308-57.054 9.037-60.434 32.042-3.376 23.005 18.205 45.958 48.203 51.265s57.055-9.037 60.434-32.042c3.377-23.004-18.204-45.957-48.203-51.265z" /></g><g><ellipse
	cx="295.992" cy="317.237" rx="49.54" ry="41.013" /></g><g><ellipse
	cx="295.992" cy="317.237" fill="#fff" rx="47.762" ry="39.539" /></g><g><ellipse
	cx="444.859" cy="318.737" rx="36.838" ry="26.633" /></g><g><ellipse
	cx="444.859" cy="318.737" fill="#424242" rx="35.798" ry="25.881" /></g><g><ellipse
	cx="445.565" cy="333.743" rx="33.016" ry="26.633" /></g><g><ellipse
	cx="445.565" cy="333.743" fill="#515151" rx="31.374" ry="25.308" /></g><g><ellipse
	cx="446.492" cy="336.126" fill="#4a4a4a" rx="20.251" ry="16.336" /></g><g><ellipse
	cx="296.777" cy="318.102" rx="41.45" ry="34.137" /></g><g><ellipse
	cx="296.777" cy="318.102" fill="#515151" rx="40.384" ry="33.258" /></g><g><ellipse
	cx="295.85" cy="322.289" rx="38.624" ry="31.312" /></g><g><ellipse
	cx="295.85" cy="322.289" fill="#515151" rx="37.388" ry="30.311" /></g><g><path
	d="M332.961 313.495s-12.945-.302-18.191-5.923c-5.247-5.62-5.03-14.606-5.03-14.606s-7.264-1.845-13.887-2.029c-6.864-.19-13.4 2.035-13.4 2.035s.75 9.57-4.498 15.192c-5.247 5.62-18.732 4.806-18.732 4.806s-1.814 4.518-1.814 9.202c0 5.045 2.118 10.433 2.118 10.433s13.254-.893 18.126 3.978c4.873 4.871 4.347 14.896 4.347 14.896s7.864 2.118 15.07 2.118c7.408 0 15.07-3.026 15.07-3.026s-1.19-4.692 4.431-12.936 16.622-7.508 16.622-7.508.998-3.718 1.09-7.958c.095-4.377-1.322-8.674-1.322-8.674z" /></g><g><path
	fill="#515151"
	d="M331.933 313.738s-12.586-.294-17.687-5.759c-5.102-5.465-4.89-14.201-4.89-14.201s-7.062-1.793-13.501-1.973c-6.674-.185-13.028 1.98-13.028 1.98s.728 9.304-4.373 14.769c-5.101 5.464-18.212 4.672-18.212 4.672s-1.765 4.393-1.765 8.947c0 4.904 2.06 10.144 2.06 10.144s12.886-.87 17.623 3.867c4.737 4.736 4.225 14.482 4.225 14.482s7.647 2.059 14.653 2.059c7.201 0 14.65-2.942 14.65-2.942s-1.156-4.562 4.31-12.576c5.465-8.015 16.16-7.3 16.16-7.3s.97-3.615 1.06-7.737c.092-4.255-1.285-8.432-1.285-8.432z" /></g><g><circle
	cx="445.83" cy="318.689" r="1.79" /></g><g><circle cx="445.83"
	cy="352.936" r="1.79" /></g><g><circle cx="468.332" cy="337.312"
	r="1.79" /></g><g><circle cx="424.828" cy="337.312" r="1.79" /></g><g><circle
	cx="216.219" cy="244.281" r="1.79" /></g><g><ellipse
	cx="218.258" cy="246.712" rx="36.838" ry="26.633" /></g><g><ellipse
	cx="218.258" cy="246.712" fill="#424242" rx="35.798" ry="25.881" /></g><g><ellipse
	cx="218.937" cy="261.718" rx="33.016" ry="26.633" /></g><g><ellipse
	cx="218.937" cy="261.718" fill="#515151" rx="31.374" ry="25.308" /></g><g><ellipse
	cx="219.436" cy="264.542" fill="#4a4a4a" rx="20.251" ry="16.336" /></g><g><circle
	cx="219.219" cy="281.794" r="1.79" /></g><g><circle cx="241.289"
	cy="265.288" r="1.79" /></g><g><circle cx="198.208" cy="265.288"
	r="1.79" /></g><g><circle cx="219.219" cy="247.286" r="1.79" /></g><g
	stroke-width="0"><g fill="#fc0"><g><path
	d="M551.504 202.38c1.785 9.041-5.444 18.084-16.147 20.197s-20.826-3.504-22.61-12.546 5.443-18.085 16.146-20.198 20.826 3.504 22.61 12.546z" /></g></g><g><g><path
	fill="#54ff00"
	d="M549.34 268.306c-1.617-8.773-11.817-14.395-22.783-12.557s-18.543 10.44-16.926 19.214c1.617 8.773 11.817 14.395 22.783 12.557 10.965-1.838 18.544-10.44 16.926-19.214z" /></g></g><g><g><g><path
	fill="#0006ff"
	d="M506.321 239.115c-.719-8.447-9.675-14.69-20.003-13.945s-18.118 8.196-17.398 16.642 9.675 14.69 20.003 13.946c10.329-.746 18.118-8.197 17.398-16.643z" /></g></g></g><g
	fill="red"><g><g><path
	d="M589.491 229.84c-2.62-7.749-12.817-11.206-22.774-7.721-9.956 3.483-15.903 12.59-13.282 20.34s12.817 11.205 22.774 7.721c9.957-3.485 15.904-12.591 13.282-20.34z" /></g></g></g></g><g><path
	fill="#bfbfbf"
	d="M485.584 158.252s-30.249 16.744-53.458 26.072c-2.278.916-29.676 1.88-58.17 1.617-28.543-.263-58.184-1.756-62.12-3.656-20.586-9.937-47.753-25.267-47.753-25.267v1.4s19.1 11.491 46.301 25.12c5.028 2.519 34.193 3.437 63.412 3.766 27.586.31 55.126-.128 59.525-1.764 26.562-9.878 53.287-26.36 53.287-26.36z" /></g><g><path
	d="M266.584 134.18c-3.376-3.752-29.298-.416-53.626 3.115-22.089 3.206-36.017 9.465-39.394 12.84s-9.025 18.127-4.53 18.555c5.031.48 24.074-7.637 46.222-10.03 25.596-2.764 47.113 1.098 49.077-.472 3.752-3.002 5.628-20.258 2.25-24.009z" /></g><g><path
	fill="#fff"
	d="M265.172 135.313c-3.258-3.402-28.477-.166-51.949 3.036-21.312 2.907-35.14 9.241-38.397 12.303s-9.37 16.201-5.033 16.59c4.855.434 24.279-8.189 45.649-10.358 24.696-2.508 46.085 1.416 47.978-.009 3.62-2.721 5.01-18.16 1.751-21.562z" /></g><g><path
	d="M323.793 233.096h-10.674c-5.402 0-9.781 4.379-9.781 9.78s4.38 9.78 9.781 9.78h10.674c5.402 0 9.781-4.38 9.781-9.78s-4.379-9.78-9.781-9.78z" /></g><g><path
	fill="#fff"
	d="M323.18 234.221h-9.45a8.658 8.658 0 1 0 0 17.315h9.45a8.658 8.658 0 1 0 0-17.315z" /></g><g><path
	d="M248.825 84.414c-1.173-3.45-29.056-1.412-31.657 1.825-1.604 2.56-.17 9.725-1.517 18.907-2.133 14.527-5.55 27.781-5.55 27.781l33.673-2.652s4.916-6.625 5.628-15.166c.91-10.894 1.489-24.623-.577-30.695z" /></g><g><path
	fill="#fff"
	d="M247.982 85.468c-1.12-3.295-27.745-1.347-30.229 1.743-1.532 2.445-.162 9.286-1.45 18.054-2.035 13.872-5.299 26.529-5.299 26.529l32.67-2.193s4.152-6.469 4.828-14.449c.886-10.46 1.477-23.816-.52-29.684z" /></g><g><path
	fill="#7f7f7f"
	d="M245.653 85.336c-.355.93-.201 15.03-.854 25.103s-2.533 19.255-2.533 19.255l1.413-.09s2.185-13.396 2.428-19.01.652-23.916 1.049-24.685c.396-.768.599-.788.599-.788s-.254-.244-.601-.396-.845-.305-.845-.305-.3-.013-.656.916z" /></g><g><path
	d="M576.475 150.134c-3.376-3.376-17.305-9.635-39.394-12.841-24.326-3.53-50.246-6.867-53.626-3.116s-1.5 21.006 2.252 24.008c1.963 1.57 23.479-2.292 49.076.473 22.147 2.392 41.19 10.509 46.223 10.03 4.494-.428-1.155-15.178-4.531-18.554z" /></g><g><path
	fill="#fff"
	d="M575.196 150.65c-3.258-3.062-17.086-9.396-38.398-12.304-23.47-3.201-48.688-6.437-51.949-3.035-3.258 3.402-1.868 18.84 1.752 21.562 1.894 1.425 23.284-2.499 47.978.009 21.368 2.17 40.792 10.791 45.649 10.357 4.337-.388-1.776-13.528-5.034-16.59z" /></g><g><path
	d="M436.917 233.096h-10.673c-5.403 0-9.782 4.379-9.782 9.78s4.38 9.78 9.782 9.78h10.673c5.402 0 9.782-4.38 9.782-9.78s-4.38-9.78-9.782-9.78z" /></g><g><path
	fill="#fff"
	d="M436.3 234.221h-9.45a8.658 8.658 0 1 0 0 17.315h9.45a8.658 8.658 0 1 0 0-17.315z" /></g><g><path
	d="M534.383 105.147c-1.348-9.182.086-16.346-1.518-18.907-2.601-3.237-30.483-5.276-31.657-1.825-2.065 6.072-1.485 19.8-.577 30.695.712 8.54 5.628 15.166 5.628 15.166l33.674 2.652s-3.417-13.254-5.55-27.781z" /></g><g><path
	fill="#fff"
	d="M533.721 105.266c-1.287-8.768.083-15.61-1.449-18.054-2.484-3.09-29.109-5.038-30.23-1.743-1.995 5.869-1.405 19.223-.519 29.684.675 7.98 4.827 14.449 4.827 14.449l32.67 2.193s-3.262-12.657-5.299-26.529z" /></g><g><ellipse
	cx="374.661" cy="241.837" fill="#9cff00" rx="31.116" ry="25.25" /></g><g><path
	fill="#fff" d="M372.826 216.414h3.143v52.973h-3.143z" /></g><g><path
	fill="#fff" d="M341.31 241.325h66.182v3.144H341.31z" /></g><g><ellipse
	cx="374.661" cy="242.212" rx="25.888" ry="21.006" /></g><g><ellipse
	cx="374.661" cy="242.212" fill="#898989" rx="24.39" ry="19.791" /></g><g
	stroke="#000"><g fill="#00af00" stroke-width=".5"><g stroke-width=".43"><path
	d="m517.878 279.429 8.807-16.968h3.268l9.385 16.968h-3.457l-2.674-5.139h-9.588l-2.518 5.139Zm6.616-6.968h7.773l-2.392-4.699c-.73-1.427-1.273-2.6-1.627-3.518a17.53 17.53 0 0 1-1.236 3.24Z" /></g></g><g
	fill="#af0000" stroke-width=".5"><g stroke-width=".43"><path
	d="M563.776 244.917v-16.968l8.833-.287c1.75-.057 3.214-.001 4.272.343 1.059.343 1.945.757 2.545 1.471.599.714.899 1.46.899 2.239 0 .726-.266 1.409-.798 2.049-.6.712-1.453 1.289-2.466 1.666 1.387.301 2.51.699 3.256 1.424.745.726 1.176 1.525 1.176 2.512 0 .795-.284 1.591-.738 2.274a4.813 4.813 0 0 1-1.681 1.58c-.668.37-1.562.765-2.568.954-1.007.189-2.298.409-3.757.456Zm3.035-9.838 5.187-.287c1.343-.075 2.367-.238 2.952-.369.771-.17 1.41-.567 1.801-.96.391-.394.587-.887.587-1.482 0-.563-.183-1.059-.548-1.487-.365-.428-.944-.606-1.622-.765-.677-.158-1.9-.163-3.545-.065l-4.812.288Zm0 7.836 5.938-.287c.979-.048 1.726-.2 2.122-.254.699-.092 1.34-.362 1.81-.578.469-.216.855-.53 1.157-.943.33-.458.506-.968.511-1.487 0-.633-.276-1.125-.714-1.592-.438-.467-1.104-.679-1.88-.869-.777-.189-1.954-.187-3.412-.111l-5.532.287Z" /></g></g><g
	fill="#af9600"><g><path
	d="M530.739 214.91v-7.187l-8.837-9.781h3.69l4.521 5.116a50.682 50.682 0 0 1 2.33 2.871 63.41 63.41 0 0 1 2.503-2.998l4.442-4.989h3.535l-9.15 9.781v7.187Z" /></g></g></g><g><g
	fill="gray"><path
	d="M501.62 148.042v-8.75h5.243c1.054 0 1.855.079 2.403.236.549.157.987.435 1.315.832.328.398.492.838.492 1.32 0 .62-.271 1.144-.815 1.57-.543.425-1.382.696-2.516.811.414.147.728.293.944.436.457.31.89.698 1.298 1.164l2.057 2.381h-1.968l-1.565-1.82a17.558 17.558 0 0 0-1.13-1.206c-.295-.278-.56-.473-.794-.585a2.825 2.825 0 0 0-.714-.233 6.327 6.327 0 0 0-.87-.041h-1.816v3.885zm1.564-4.888h3.364c.715 0 1.274-.055 1.678-.165.403-.109.71-.284.92-.525.21-.24.314-.502.314-.785 0-.414-.203-.754-.61-1.02-.405-.267-1.046-.4-1.923-.4h-3.743zm10.285 4.888v-8.75h4.436c.904 0 1.628.089 2.174.266.546.177.974.45 1.283.817.31.368.464.753.464 1.155 0 .374-.137.727-.412 1.057-.274.33-.688.597-1.242.8.715.155 1.265.42 1.65.794.384.374.576.815.576 1.325 0 .41-.117.79-.35 1.143a2.481 2.481 0 0 1-.868.815c-.344.19-.775.335-1.294.432-.52.098-1.155.147-1.908.147zm1.565-5.073h2.557c.694 0 1.191-.034 1.492-.102.398-.087.698-.233.9-.436a1.04 1.04 0 0 0 .302-.764c0-.29-.094-.546-.282-.767-.189-.22-.457-.372-.807-.453-.35-.082-.95-.123-1.799-.123h-2.363zm0 4.04h2.944c.505 0 .86-.013 1.065-.041a3.17 3.17 0 0 0 .903-.239 1.51 1.51 0 0 0 .597-.486c.156-.213.234-.459.234-.738a1.2 1.2 0 0 0-.339-.85c-.226-.24-.539-.41-.94-.507-.4-.098-.977-.147-1.73-.147h-2.734z" /></g></g><g><g
	fill="gray"><path
	d="M511.547 127.036v-8.75h5.243c1.054 0 1.855.078 2.404.235.548.157.987.435 1.315.833.328.398.492.838.492 1.32 0 .62-.272 1.143-.815 1.569-.543.426-1.382.696-2.517.812.414.147.729.292.944.435.457.31.89.699 1.299 1.164l2.057 2.382H520l-1.564-1.82a17.558 17.558 0 0 0-1.13-1.206c-.296-.279-.56-.474-.794-.585a2.825 2.825 0 0 0-.714-.233 6.327 6.327 0 0 0-.871-.042h-1.815v3.886zm1.565-4.889h3.363c.716 0 1.275-.055 1.678-.164.404-.11.71-.285.92-.525.21-.241.314-.503.314-.785 0-.414-.203-.754-.609-1.021-.406-.267-1.047-.4-1.923-.4h-3.743zm13.358 4.889v-7.718h-3.897v-1.033h9.374v1.033h-3.913v7.718z" /></g></g><g><g
	fill="gray"><path
	d="M229.333 148.042v-8.75h1.565v7.718h5.824v1.032zm9.196 0v-8.75h4.436c.904 0 1.628.089 2.174.266.546.177.973.45 1.283.817.309.368.463.753.463 1.155 0 .374-.137.727-.411 1.057-.274.33-.688.597-1.242.8.715.155 1.265.42 1.65.794.384.374.576.815.576 1.325 0 .41-.117.79-.35 1.143a2.481 2.481 0 0 1-.868.815c-.344.19-.776.335-1.295.432-.519.098-1.154.147-1.907.147zm1.564-5.073h2.558c.693 0 1.19-.034 1.492-.102.398-.087.698-.233.9-.436a1.04 1.04 0 0 0 .302-.764c0-.29-.094-.546-.283-.767-.188-.22-.457-.372-.806-.453-.35-.082-.95-.123-1.799-.123h-2.363zm0 4.04h2.945c.505 0 .86-.013 1.064-.041a3.17 3.17 0 0 0 .904-.239 1.51 1.51 0 0 0 .597-.486c.156-.213.234-.459.234-.738a1.2 1.2 0 0 0-.339-.85c-.226-.24-.54-.41-.94-.507-.4-.098-.977-.147-1.73-.147h-2.734z" /></g></g><g><g
	fill="gray"><path
	d="M221.246 127.036v-8.75h1.564v7.717h5.824v1.033zm12.269 0v-7.718h-3.896v-1.033h9.373v1.033h-3.912v7.718z" /></g></g><g
	fill="#0000af" stroke="#000" stroke-width=".5"><g stroke-width=".43"><path
	d="m476.901 249.421 8.868-8.842-7.82-8.126h3.613l4.16 4.352c.866.903 1.481 1.597 1.846 2.084a23.47 23.47 0 0 1 1.815-1.933l4.614-4.503h3.3l-8.055 7.998 8.681 8.97h-3.754l-5.772-6.053c-.345-.372-.679-.75-1-1.134a30.976 30.976 0 0 1-1.095 1.273l-5.756 5.914Z" /></g></g><g><path
	fill="#9cff00"
	d="m358.062 228.102-.348.282 13.625 14.344L392 255.846l.353-.278-15.575-16.948z" /></g><g><path
	fill="#9cff00"
	d="m356.456 255.568.349.278 20.636-13.118 13.634-14.785-.353-.283-18.726 10.96z" /></g><g><path
	fill="#7f7f7f"
	d="M504.131 85.266c.383.823.201 15.03.854 25.103s2.777 19.32 2.777 19.32l-1.419-.08s-2.423-13.472-2.666-19.086-.652-23.916-1.049-24.684c-.396-.769-.401-.671-.401-.671s.055-.08.338-.277c.284-.196 1.059-.445 1.059-.445s.125-.003.507.82z" /></g><g><circle
	cx="219.219" cy="265.292" r="1.79" /></g><g><circle cx="445.825"
	cy="337.319" r="1.79" /></g><g id="guideGroup"><text id="guideText"
	x="374.339" y="8.939" fill="#000" text-anchor="middle"><tspan>guide</tspan></text><path
	id="guidePath" fill="none" stroke="#000" stroke-width="1.25"
	d="M374.451 242.113V14.885" /></g><g id="backGroup"><path id="backPath"
	fill="none" stroke="#000" stroke-width="1.25"
	d="M317.774 242.113V43.563H73.338" /><text id="backText"
	x="68.743" y="47.303" fill="#000" text-anchor="end"><tspan>back</tspan></text></g><g
	id="lefttriggerGroup"><path id="lefttriggerPath" fill="none" stroke="#000"
	stroke-width="1.25" d="M232.162 98.275H73.322" /><text
	id="lefttriggerText" x="68.736" y="101.882" fill="#000"
	text-anchor="end"><tspan>lefttrigger</tspan></text></g><g
	id="leftshoulderGroup"><path id="leftshoulderPath" fill="none" stroke="#000"
	stroke-width="1.25" d="M214.513 148.133H73.323" /><text
	id="leftshoulderText" x="68.736" y="151.696" fill="#000"
	text-anchor="end"><tspan>leftshoulder</tspan></text></g><g id="leftyGroup"><g
	id="leftyPath" fill="none" stroke="#000" stroke-width="1.25"><path
	d="M221.571 281.823h4.413v-65.411H73.321m152.001 30.995h-3.751" /></g><text
	id="leftyText" x="68.736" y="219.886" fill="#000" text-anchor="end"><tspan>lefty</tspan></text></g><g
	id="leftstickGroup"><path id="leftstickPath" fill="none" stroke="#000"
	stroke-width="1.25" d="M218.925 263.071v-8.383H73.322" /><text
	id="leftstickText" x="68.736" y="258.228" fill="#000" text-anchor="end"><tspan>leftstick</tspan></text></g><g
	id="leftxGroup"><g id="leftxPath" fill="none" stroke="#000" stroke-width="1.25"><path
	d="M240.986 268.145v22.943H73.322m124.866-.662v-22.281" /></g><text
	id="leftxText" x="68.736" y="294.563" fill="#000" text-anchor="end"><tspan>leftx</tspan></text></g><g
	id="dpupGroup"><path id="dpupPath" fill="none" stroke="#000"
	stroke-width="1.25" d="M296.138 297.707v17.648l-222.816.442" /><text
	id="dpupText" x="68.736" y="319.359" fill="#000" text-anchor="end"><tspan>dpup</tspan></text></g><g
	id="dpleftGroup"><path id="dpleftPath" fill="none" stroke="#000"
	stroke-width="1.25" d="M265.253 324.18v17.649H73.323" /><text
	id="dpleftText" x="68.736" y="345.347" fill="#000" text-anchor="end"><tspan>dpleft</tspan></text></g><g
	id="dpdownGroup"><path id="dpdownPath" fill="none" stroke="#000"
	stroke-width="1.25" d="M296.138 345.8v22.061H73.322" /><text
	id="dpdownText" x="68.736" y="371.379" fill="#000" text-anchor="end"><tspan>dpdown</tspan></text></g><g
	id="dprightGroup"><path id="dprightPath" fill="none" stroke="#000"
	stroke-width="1.25" d="M327.019 324.18v70.154H73.318" /><text
	id="dprightText" x="68.736" y="397.808" fill="#000" text-anchor="end"><tspan>dpright</tspan></text></g><g
	id="rightyGroup"><g id="rightyPath" fill="none" stroke="#000" stroke-width="1.25"><path
	d="M443.06 318.889h-4.412v75.449h236.935M439.31 352.863h3.75" /></g><text
	id="rightyText" x="681.315" y="397.808" fill="#000" text-anchor="start"><tspan>righty</tspan></text></g><g
	id="rightstickGroup"><path id="rightstickPath" fill="none" stroke="#000"
	stroke-width="1.25" d="M445.487 340.284v6.398h230.096" /><text
	id="rightstickText" x="681.315" y="350.201" fill="#000"
	text-anchor="start"><tspan>rightstick</tspan></text></g><g id="rightxGroup"><g
	id="rightxPath" fill="none" stroke="#000" stroke-width="1.25"><path
	d="M424.97 335.206v-30.775c55.373-.02 195.24.193 250.613.331m-206.932.331v30.113" /></g><text
	id="rightxText" x="681.315" y="308.285" fill="#000" text-anchor="start"><tspan>rightx</tspan></text></g><g
	id="aGroup"><path id="aPath" fill="none" stroke="#000" stroke-width="1.25"
	d="M544.982 269.248h130.601" /><text id="aText" x="681.315"
	y="272.722" fill="#000" text-anchor="start"><tspan>a</tspan></text></g><g
	id="bGroup"><path id="bPath" fill="none" stroke="#000" stroke-width="1.25"
	d="M585.574 235.715h90.009" /><text id="bText" x="681.315"
	y="239.190" fill="#000" text-anchor="start"><tspan>b</tspan></text></g><g
	id="yGroup"><path id="yPath" fill="none" stroke="#000" stroke-width="1.25"
	d="M545.865 206.374h129.718" /><text id="yText" x="681.315"
	y="209.915" fill="#000" text-anchor="start"><tspan>y</tspan></text></g><g
	id="xGroup"><path id="xPath" fill="none" stroke="#000" stroke-width="1.25"
	d="M488.085 230.2v-49.417H675.59" /><text id="xText" x="681.322"
	y="184.280" fill="#000" text-anchor="start"><tspan>x</tspan></text></g><g
	id="rightshoulderGroup"><path id="rightshoulderPath" fill="none" stroke="#000"
	stroke-width="1.25" d="M534.393 148.133h141.19" /><text
	id="rightshoulderText" x="681.315" y="151.696" fill="#000"
	text-anchor="start"><tspan>rightshoulder</tspan></text></g><g
	id="righttriggerGroup"><path id="righttriggerPath" fill="none" stroke="#000"
	stroke-width="1.25" d="M516.744 98.275h158.839" /><text
	id="righttriggerText" x="681.315" y="101.882" fill="#000"
	text-anchor="start"><tspan>righttrigger</tspan></text></g><g id="startGroup"><path
	id="startPath" fill="none" stroke="#000" stroke-width="1.25"
	d="M431.147 242.113V43.563h244.436" /><text id="startText"
	x="681.315" y="47.303" fill="#000" text-anchor="start"><tspan>start</tspan></text></g></svg>
