<?xml version="1.0" encoding="UTF-8"?>
<svg version="1.1" xml:space="preserve"
	xmlns="http://www.w3.org/2000/svg" style="overflow:visible"
	height="100%" width="100%"><g
	transform="matrix(.44122 0 0 .44122 -67.706 32.147)" stroke="#000"
	stroke-width="5"><g stroke="#000" stroke-width="5"><g stroke="#000"
	stroke-width="5"><path
	d="m1542 465.9s-45.682-136.82-71.429-174.57c-34.014-49.878-85.436-106.06-104.71-113.99s-81.633-9.301-97.506-2.5c-15.872 6.802-67.66 53.145-107.34 64.48s-272.07 5.668-303.82 1.134-47.753-5.435-74.964-23.572-40.781-40.408-49.852-44.942c-9.069-4.534-75.498-3.9-92.505 2.9-17.007 6.802-73.429 60.68-115.38 129.83-41.95 69.148-86.697 221.06-90.971 256.46-7.937 65.748-4.134 119.36-2.134 130.36s16.959 86.645 72.929 110.19c72.516 30.507 175.67-32.14 249.5-61.058 76.927-30.134 95.033-27.595 148.73-27.595 106.58 0 98.615-1.133 205.22-1.133 108.84 0 199.41 57.313 249.3 76.583s86.436 33.106 134.06 2.5 66.76-89.285 73.563-148.23-22.675-176.84-22.675-176.84z"
	fill="#fff" stroke="#000" stroke-width="5" /></g></g></g><g
	transform="matrix(.44122 0 0 .44122 -67.706 32.147)"><ellipse cx="825.89" cy="631.74" rx="132.16"
	ry="107.35" fill="#f2f2f2" /></g><g
	transform="matrix(.44122 0 0 .44122 -67.706 32.147)"><ellipse cx="825.89" cy="631.74" rx="127.42"
	ry="103.49" fill="#fff" /></g><g
	transform="matrix(.44122 0 0 .44122 -67.706 32.147)"><ellipse cx="1163.5" cy="633.15" rx="121.67"
	ry="90.324" fill="#f2f2f2" /></g><g
	transform="matrix(.44122 0 0 .44122 -67.706 32.147)"><ellipse cx="1163.5" cy="633.15" rx="117.3"
	ry="87.079" fill="#fff" /></g><g
	transform="matrix(.44122 0 0 .44122 -67.706 32.147)"><path
	d="m660.58 370.76c-70.526-12.48-134.14 21.246-142.07 75.328-7.938 54.083 42.798 108.04 113.32 120.52s134.14-21.246 142.07-75.328c7.939-54.083-42.798-108.04-113.32-120.52z"
	fill="#f2f2f2" /></g><g
	transform="matrix(.44122 0 0 .44122 -67.706 32.147)"><path
	d="m660.07 374.28c-67.992-12.031-129.31 20.482-136.97 72.622-7.653 52.139 41.26 104.16 109.25 116.19s129.31-20.482 136.97-72.622c7.654-52.138-41.259-104.16-109.25-116.19z"
	fill="#fff" /></g><g
	transform="matrix(.44122 0 0 .44122 -67.706 32.147)"><ellipse cx="824.3" cy="646.14" rx="112.28"
	ry="92.953" /></g><g
	transform="matrix(.44122 0 0 .44122 -67.706 32.147)"><ellipse cx="824.3" cy="646.14" rx="108.25"
	ry="89.613" fill="#fff" /></g><g
	transform="matrix(.44122 0 0 .44122 -67.706 32.147)"><ellipse cx="1161.7" cy="649.54" rx="83.492"
	ry="60.363" /></g><g
	transform="matrix(.44122 0 0 .44122 -67.706 32.147)"><ellipse cx="1161.7" cy="649.54" rx="81.133"
	ry="58.657" fill="#424242" /></g><g
	transform="matrix(.44122 0 0 .44122 -67.706 32.147)"><ellipse cx="1163.3" cy="683.55" rx="74.83"
	ry="60.363" /></g><g
	transform="matrix(.44122 0 0 .44122 -67.706 32.147)"><ellipse cx="1163.3" cy="683.55" rx="71.107"
	ry="57.36" fill="#515151" /></g><g
	transform="matrix(.44122 0 0 .44122 -67.706 32.147)"><ellipse cx="1165.4" cy="688.95" rx="45.898"
	ry="37.025" fill="#4a4a4a" /></g><g
	transform="matrix(.44122 0 0 .44122 -67.706 32.147)"><ellipse cx="826.08" cy="648.1" rx="93.945"
	ry="77.369" /></g><g
	transform="matrix(.44122 0 0 .44122 -67.706 32.147)"><ellipse cx="826.08" cy="648.1" rx="91.527"
	ry="75.377" fill="#515151" /></g><g
	transform="matrix(.44122 0 0 .44122 -67.706 32.147)"><ellipse cx="823.98" cy="657.59" rx="87.538"
	ry="70.967" /></g><g
	transform="matrix(.44122 0 0 .44122 -67.706 32.147)"><ellipse cx="823.98" cy="657.59" rx="84.738"
	ry="68.698" fill="#515151" /></g><g
	transform="matrix(.44122 0 0 .44122 -67.706 32.147)"><path
	d="m908.09 637.66s-29.34-0.686-41.231-13.424c-11.892-12.739-11.401-33.105-11.401-33.105s-16.461-4.181-31.472-4.598c-15.558-0.432-30.371 4.613-30.371 4.613s1.699 21.69-10.193 34.43c-11.892 12.738-42.455 10.893-42.455 10.893s-4.113 10.239-4.113 20.857c0 11.433 4.8 23.646 4.8 23.646s30.041-2.025 41.083 9.015c11.043 11.04 9.851 33.76 9.851 33.76s17.824 4.8 34.156 4.8c16.789 0 34.154-6.857 34.154-6.857s-2.696-10.635 10.045-29.318 37.671-17.017 37.671-17.017 2.263-8.428 2.472-18.036c0.214-9.921-2.996-19.659-2.996-19.659z" /></g><g
	transform="matrix(.44122 0 0 .44122 -67.706 32.147)"><path
	d="m905.76 638.21s-28.526-0.667-40.088-13.052c-11.562-12.386-11.084-32.187-11.084-32.187s-16.004-4.064-30.598-4.47c-15.127-0.42-29.528 4.485-29.528 4.485s1.651 21.088-9.91 33.474c-11.562 12.385-41.276 10.59-41.276 10.59s-4 9.955-4 20.278c0 11.115 4.667 22.99 4.667 22.99s29.207-1.97 39.942 8.765c10.736 10.733 9.577 32.822 9.577 32.822s17.33 4.666 33.209 4.666c16.322 0 33.206-6.666 33.206-6.666s-2.622-10.34 9.766-28.504c12.387-18.165 36.624-16.545 36.624-16.545s2.2-8.194 2.403-17.535c0.21-9.643-2.91-19.111-2.91-19.111z"
	fill="#515151" /></g><g
	transform="matrix(.44122 0 0 .44122 -67.706 32.147)"><circle cx="1163.9" cy="649.43" r="4.057" /></g><g
	transform="matrix(.44122 0 0 .44122 -67.706 32.147)"><circle cx="1163.9" cy="727.05" r="4.057" /></g><g
	transform="matrix(.44122 0 0 .44122 -67.706 32.147)"><circle cx="1214.9" cy="691.64" r="4.057" /></g><g
	transform="matrix(.44122 0 0 .44122 -67.706 32.147)"><circle cx="1116.3" cy="691.64" r="4.057" /></g><g
	transform="matrix(.44122 0 0 .44122 -67.706 32.147)"><circle cx="643.5" cy="480.79" r="4.057" /></g><g
	transform="matrix(.44122 0 0 .44122 -67.706 32.147)"><ellipse cx="648.12" cy="486.3" rx="83.492"
	ry="60.363" /></g><g
	transform="matrix(.44122 0 0 .44122 -67.706 32.147)"><ellipse cx="648.12" cy="486.3" rx="81.133"
	ry="58.657" fill="#424242" /></g><g
	transform="matrix(.44122 0 0 .44122 -67.706 32.147)"><ellipse cx="649.66" cy="520.31" rx="74.83"
	ry="60.363" /></g><g
	transform="matrix(.44122 0 0 .44122 -67.706 32.147)"><ellipse cx="649.66" cy="520.31" rx="71.107"
	ry="57.36" fill="#515151" /></g><g
	transform="matrix(.44122 0 0 .44122 -67.706 32.147)"><ellipse cx="650.79" cy="526.71" rx="45.898"
	ry="37.025" fill="#4a4a4a" /></g><g
	transform="matrix(.44122 0 0 .44122 -67.706 32.147)"><circle cx="650.3" cy="565.81" r="4.057" /></g><g
	transform="matrix(.44122 0 0 .44122 -67.706 32.147)"><circle cx="700.32" cy="528.4" r="4.057" /></g><g
	transform="matrix(.44122 0 0 .44122 -67.706 32.147)"><circle cx="602.68" cy="528.4" r="4.057" /></g><g
	transform="matrix(.44122 0 0 .44122 -67.706 32.147)"><circle cx="650.3" cy="487.6" r="4.057" /></g><g
	transform="translate(-32.005 -.11473)" stroke-width="0"><g
	transform="matrix(.44122 0 0 .44122 -35.701 32.262)" fill="#fc0"><g
	fill="#fc0" stroke-width="0"><path
	transform="matrix(.9811 -.1937 .1937 .9811 -50.662 270.82)"
	d="m1404.2 394.45c0 20.888-20.043 37.821-44.767 37.821s-44.767-16.933-44.767-37.821 20.043-37.821 44.767-37.821 44.767 16.933 44.767 37.821z"
	fill="#fc0" stroke-width="0" /></g></g><g
	transform="matrix(.44122 0 0 .44122 -35.701 32.262)"><g stroke-width="0"><path
	d="m1398.5 535.24c-3.666-19.884-26.784-32.626-51.637-28.459s-42.027 23.663-38.362 43.547c3.666 19.884 26.784 32.626 51.637 28.459 24.852-4.166 42.028-23.663 38.362-43.547z"
	fill="#54ff00" stroke-width="0" /></g></g><g
	transform="matrix(.44122 0 0 .44122 -35.701 32.262)"><g stroke-width="0"><g stroke-width="0"><path
	d="m1301 469.08c-1.63-19.144-21.928-33.294-45.336-31.606s-41.063 18.576-39.432 37.72 21.929 33.294 45.336 31.606c23.409-1.689 41.063-18.576 39.432-37.72z"
	fill="#0006ff" stroke-width="0" /></g></g></g><g
	transform="matrix(.44122 0 0 .44122 -35.701 32.262)" fill="#f00"><g
	fill="#f00" stroke-width="0"><g fill="#f00" stroke-width="0"><path
	d="m1489.5 448.06c-5.94-17.563-29.05-25.398-51.616-17.501-22.566 7.896-36.044 28.536-30.104 46.099s29.05 25.397 51.616 17.501c22.567-7.898 36.046-28.537 30.104-46.099z"
	fill="#f00" stroke-width="0" /></g></g></g></g><g
	transform="matrix(.44122 0 0 .44122 -67.706 32.147)"><path
	d="m1254 285.81s-68.557 37.949-121.16 59.091c-5.162 2.075-67.258 4.26-131.84 3.664-64.69-0.596-131.87-3.979-140.79-8.285-46.656-22.522-108.23-57.266-108.23-57.266v3.17s43.289 26.046 104.94 56.935c11.394 5.709 77.495 7.789 143.72 8.535 62.521 0.703 124.94-0.289 134.91-3.998 60.2-22.388 120.77-59.741 120.77-59.741z"
	fill="#bfbfbf" /></g><g
	transform="matrix(.44122 0 0 .44122 -67.706 32.147)"><path
	d="m757.65 231.25c-7.653-8.502-66.403-0.94-121.54 7.062-50.064 7.266-81.632 21.451-89.285 29.103s-20.455 41.083-10.268 42.053c11.404 1.086 54.563-17.311 104.76-22.732 58.013-6.266 106.78 2.487 111.23-1.072 8.504-6.804 12.755-45.912 5.102-54.414z" /></g><g
	transform="matrix(.44122 0 0 .44122 -67.706 32.147)"><path
	d="m754.45 233.82c-7.384-7.711-64.543-0.376-117.74 6.88-48.303 6.59-79.642 20.945-87.025 27.885s-21.236 36.719-11.407 37.599c11.003 0.984 55.026-18.558 103.46-23.475 55.973-5.683 104.45 3.209 108.74-0.02 8.204-6.168 11.353-41.159 3.969-48.869z"
	fill="#fff" /></g><g
	transform="matrix(.44122 0 0 .44122 -67.706 32.147)"><path
	d="m887.31 455.44h-24.191c-12.244 0-22.169 9.924-22.169 22.165s9.925 22.165 22.169 22.165h24.191c12.244 0 22.169-9.924 22.169-22.165s-9.925-22.165-22.169-22.165z" /></g><g
	transform="matrix(.44122 0 0 .44122 -67.706 32.147)"><path
	d="m885.92 457.99h-21.416c-10.838 0-19.625 8.785-19.625 19.622 0 10.836 8.787 19.621 19.625 19.621h21.416c10.839 0 19.625-8.785 19.625-19.621 0-10.837-8.786-19.622-19.625-19.622z"
	fill="#fff" /></g><g
	transform="matrix(.44122 0 0 .44122 -67.706 32.147)"><path
	d="m717.4 118.46c-2.66-7.82-65.854-3.199-71.749 4.137-3.636 5.803-0.385 22.04-3.439 42.851-4.834 32.925-12.579 62.965-12.579 62.965l76.318-6.011s11.143-15.015 12.757-34.373c2.06-24.692 3.374-55.806-1.308-69.569z" /></g><g
	transform="matrix(.44122 0 0 .44122 -67.706 32.147)"><path
	d="m715.49 120.85c-2.54-7.468-62.883-3.055-68.513 3.95-3.472 5.541-0.367 21.046-3.285 40.918-4.615 31.44-12.011 60.126-12.011 60.126l74.045-4.97s9.41-14.661 10.941-32.748c2.008-23.708 3.347-53.977-1.177-67.276z"
	fill="#fff" /></g><g
	transform="matrix(.44122 0 0 .44122 -67.706 32.147)"><path
	d="m710.21 120.55c-0.80537 2.1069-0.4558 34.064-1.9362 56.894s-5.7406 43.64-5.7406 43.64l3.2043-0.20384s4.9504-30.361 5.5026-43.085 1.4776-54.204 2.3758-55.946c0.89819-1.7416 1.3574-1.7869 1.3574-1.7869s-0.57393-0.5527-1.3615-0.8981-1.914-0.69094-1.914-0.69094-0.68256-0.0299-1.4879 2.077z"
	fill="#7f7f7f" /></g><g
	transform="matrix(.44122 0 0 .44122 -67.706 32.147)"><path
	d="m1460 267.41c-7.653-7.651-39.221-21.837-89.285-29.103-55.133-8.002-113.88-15.563-121.54-7.062s-3.401 47.61 5.103 54.412c4.45 3.56 53.214-5.193 111.23 1.072 50.195 5.422 93.354 23.818 104.76 22.732 10.186-0.968-2.616-34.399-10.269-42.051z" /></g><g
	transform="matrix(.44122 0 0 .44122 -67.706 32.147)"><path
	d="m1457.1 268.58c-7.384-6.939-38.723-21.295-87.025-27.885-53.194-7.256-110.35-14.591-117.74-6.88-7.384 7.71-4.234 42.7 3.97 48.869 4.294 3.229 52.771-5.663 108.74 0.02 48.43 4.917 92.453 24.459 103.46 23.475 9.829-0.88-4.024-30.66-11.408-37.599z"
	fill="#fff" /></g><g
	transform="matrix(.44122 0 0 .44122 -67.706 32.147)"><path
	d="m1143.7 455.44h-24.191c-12.244 0-22.169 9.924-22.169 22.165s9.925 22.165 22.169 22.165h24.191c12.243 0 22.169-9.924 22.169-22.165s-9.925-22.165-22.169-22.165z" /></g><g
	transform="matrix(.44122 0 0 .44122 -67.706 32.147)"><path
	d="m1142.3 457.99h-21.416c-10.839 0-19.625 8.785-19.625 19.622 0 10.836 8.786 19.621 19.625 19.621h21.416c10.838 0 19.625-8.785 19.625-19.621 0-10.837-8.787-19.622-19.625-19.622z"
	fill="#fff" /></g><g
	transform="matrix(.44122 0 0 .44122 -67.706 32.147)"><path
	d="m1364.6 165.45c-3.055-20.811 0.196-37.048-3.439-42.851-5.896-7.336-69.089-11.957-71.749-4.137-4.682 13.763-3.367 44.877-1.308 69.568 1.614 19.358 12.756 34.373 12.756 34.373l76.319 6.011c0 1e-3 -7.745-30.039-12.579-62.964z" /></g><g
	transform="matrix(.44122 0 0 .44122 -67.706 32.147)"><path
	d="m1363.1 165.72c-2.917-19.872 0.188-35.377-3.284-40.918-5.63-7.005-65.973-11.418-68.513-3.95-4.524 13.3-3.185 43.568-1.178 67.276 1.53 18.087 10.941 32.748 10.941 32.748l74.045 4.97c1e-3 0-7.394-28.686-12.011-60.126z"
	fill="#fff" /></g><g
	transform="matrix(.44122 0 0 .44122 -67.706 32.147)"><ellipse cx="1002.6" cy="475.25" rx="70.523"
	ry="57.227" fill="#9cff00" /></g><g
	transform="matrix(.44122 0 0 .44122 -67.706 32.147)"><rect x="998.44" y="417.63" width="7.125"
	height="120.06" fill="#fff" /></g><g
	transform="matrix(.44122 0 0 .44122 -67.706 32.147)"><rect x="927.01" y="474.09" width="150" height="7.125"
	fill="#fff" /></g><g
	transform="matrix(.44122 0 0 .44122 -67.706 32.147)"><ellipse cx="1002.6" cy="476.1" rx="58.674"
	ry="47.61" /></g><g
	transform="matrix(.44122 0 0 .44122 -67.706 32.147)"><ellipse cx="1002.6" cy="476.1" rx="55.278"
	ry="44.855" fill="#898989" /></g><g
	transform="translate(-32.005 -.11473)" stroke="#000"><g
	transform="matrix(.44122 0 0 .44122 -35.701 32.262)" fill="#00af00"
	stroke-width=".5"><g transform="matrix(1.3514,0,0,1,1327.3,560.45)"
	fill="#00af00" stroke="#000" stroke-width=".43011"><path
	d="m-0.078696 0 14.769-38.456h5.4825l15.739 38.456h-5.7973l-4.4857-11.647h-16.08l-4.2233 11.647zm11.096-15.792h13.037l-4.0135-10.65c-1.2242-3.2352-2.1335-5.8934-2.7281-7.9745-0.48968 2.4658-1.1805 4.9141-2.0723 7.3449z"
	fill="#00af00" stroke="#000" stroke-width=".43011" /></g></g><g
	transform="matrix(.44122 0 0 .44122 -35.701 32.262)" fill="#af0000"
	stroke-width=".5"><g transform="matrix(1.3514,0,0,1,1425.9,482.23)"
	fill="#af0000" stroke="#000" stroke-width=".43011"><path
	d="m3.9348 0v-38.456l14.813-0.65104c2.9364-0.12906 5.3908-0.0015 7.1659 0.7767 1.775 0.77825 3.2616 1.7158 4.2672 3.3334 1.0055 1.6177 1.5083 3.3096 1.5083 5.0759-3.1e-5 1.6439-0.44597 3.1916-1.3378 4.6431-0.89191 1.4515-2.3348 2.8836-4.1361 3.7755 2.3259 0.68205 4.2104 1.5846 5.4608 3.2284 1.2504 1.6439 1.9719 3.4548 1.9719 5.6933-3.3e-5 1.8013-0.47675 3.6059-1.2374 5.1536-0.76076 1.5477-1.7007 2.7412-2.8199 3.5807-1.1193 0.83942-2.619 1.7338-4.3066 2.1622-1.6876 0.42846-3.8532 0.92745-6.3002 1.0333zm5.089-22.297 8.7009-0.65104c2.2525-0.16854 3.9699-0.53925 4.9493-0.83657 1.2941-0.38471 2.3654-1.2834 3.0212-2.1753 0.65577-0.89186 0.98367-2.0111 0.9837-3.3577-2.6e-5 -1.2766-0.30606-2.4002-0.91812-3.3708-0.6121-0.97055-1.5829-1.3747-2.7195-1.7332-1.1367-0.35847-3.1879-0.36961-5.9461-0.14713l-8.0714 0.65104zm0 17.759 9.9601-0.65104c1.6419-0.10732 2.8944-0.45183 3.559-0.57425 1.1717-0.20985 2.2473-0.82003 3.0343-1.3097 0.78693-0.48966 1.434-1.2023 1.9412-2.1379 0.50712-0.9356 0.85705-2.1457 0.85708-3.3699-2.8e-5 -1.434-0.46363-2.5498-1.1981-3.6078-0.73452-1.058-1.8495-1.5408-3.1524-1.9693-1.3029-0.42844-3.2781-0.42362-5.7231-0.25206l-9.278 0.65104z"
	fill="#af0000" stroke="#000" stroke-width=".43011" /></g></g><g
	transform="matrix(.44122 0 0 .44122 -35.701 32.262)" fill="#af9600"><g
	transform="matrix(1.3514,0,0,1,1336.1,414.22)" fill="#af9600"
	stroke="#000"><path
	d="m14.978 0v-16.29l-14.821-22.166h6.1907l7.581 11.595c1.399 2.1685 2.7019 4.337 3.9086 6.5055 1.1542-2.0111 2.5532-4.2758 4.1971-6.7941l7.4499-11.306h5.9284l-15.346 22.166v16.29z"
	fill="#af9600" stroke="#000" /></g></g></g><g
	transform="matrix(.44122 0 0 .44122 -67.706 32.147)"><g transform="matrix(1.3514,0,0,1,1287.4,262.67)"
	fill="#808080"><path
	d="m2.1781 0v-19.832h8.7934c1.7677 2e-5 3.1115 0.17814 4.0314 0.53437 0.91991 0.35626 1.6549 0.98533 2.2051 1.8872 0.55013 0.9019 0.82521 1.8985 0.82522 2.9897-1.8e-5 1.407-0.45547 2.5929-1.3664 3.5579-0.91092 0.96503-2.3179 1.5783-4.2208 1.8398 0.69444 0.33371 1.222 0.66289 1.5828 0.98756 0.76659 0.70348 1.4926 1.5828 2.1781 2.638l3.4497 5.3978h-3.3009l-2.6245-4.1261c-0.76662-1.1905-1.3979-2.1014-1.894-2.7327-0.49605-0.63131-0.94023-1.0732-1.3325-1.3258-0.39233-0.25252-0.79141-0.42839-1.1973-0.5276-0.29763-0.063123-0.78465-0.094689-1.4611-0.094698h-3.0439v8.8069zm2.6245-11.08h5.6413c1.1995 1.1e-5 2.1375-0.124 2.8139-0.37203 0.6764-0.24801 1.1905-0.64484 1.5422-1.1905 0.35172-0.54563 0.52759-1.1386 0.5276-1.779-1.6e-5 -0.93794-0.34048-1.7091-1.0214-2.3133-0.68094-0.60424-1.7564-0.90638-3.2265-0.90639h-6.2771z" /><path
	d="m22.051 0v-19.832h7.4405c1.5152 2e-5 2.7304 0.20069 3.6459 0.60201 0.9154 0.40136 1.6324 1.0191 2.151 1.8534 0.51857 0.83426 0.77786 1.7068 0.77788 2.6177-1.6e-5 0.84778-0.23 1.646-0.68994 2.3945-0.45998 0.74858-1.1544 1.3528-2.0834 1.8128 1.1995 0.35174 2.1217 0.9515 2.7665 1.7993 0.64483 0.84778 0.96725 1.8489 0.96727 3.0033-1.7e-5 0.92895-0.19618 1.7925-0.58848 2.5907-0.39234 0.79817-0.8771 1.4137-1.4543 1.8466-0.57722 0.43291-1.301 0.75984-2.1713 0.9808-0.87033 0.22096-1.9368 0.33144-3.1994 0.33144zm2.6245-11.499h4.2885c1.1634 1.2e-5 1.9977-0.07665 2.5027-0.22998 0.66738-0.1984 1.1702-0.52759 1.5084-0.98756 0.33819-0.45995 0.5073-1.0372 0.50731-1.7316-1.3e-5 -0.65836-0.15784-1.2378-0.47349-1.7384-0.31567-0.50053-0.76662-0.84324-1.3528-1.0281-0.58624-0.18487-1.5918-0.27731-3.0168-0.27733h-3.9638zm0 9.1586h4.9378c0.84776 2.4e-6 1.443-0.031564 1.7857-0.094698 0.60425-0.10822 1.1093-0.2886 1.5152-0.54113 0.40584-0.25252 0.73953-0.62004 1.0011-1.1026 0.26153-0.4825 0.39231-1.0394 0.39232-1.6707-1.4e-5 -0.73954-0.18941-1.3821-0.56819-1.9278-0.3788-0.54563-0.90415-0.92893-1.576-1.1499-0.67192-0.22095-1.6392-0.33143-2.9018-0.33144h-4.5861z" /></g></g><g
	transform="matrix(.44122 0 0 .44122 -67.706 32.147)"><g transform="matrix(1.3514,0,0,1,1309.9,215.06)"
	fill="#808080"><path
	d="m2.1781 0v-19.832h8.7934c1.7677 2e-5 3.1115 0.17814 4.0314 0.53437 0.91991 0.35626 1.6549 0.98533 2.2051 1.8872 0.55013 0.9019 0.82521 1.8985 0.82522 2.9897-1.8e-5 1.407-0.45547 2.5929-1.3664 3.5579-0.91092 0.96503-2.3179 1.5783-4.2208 1.8398 0.69444 0.33371 1.222 0.66289 1.5828 0.98756 0.76659 0.70348 1.4926 1.5828 2.1781 2.638l3.4497 5.3978h-3.3009l-2.6245-4.1261c-0.76662-1.1905-1.3979-2.1014-1.894-2.7327-0.49605-0.63131-0.94023-1.0732-1.3325-1.3258-0.39233-0.25252-0.79141-0.42839-1.1973-0.5276-0.29763-0.063123-0.78465-0.094689-1.4611-0.094698h-3.0439v8.8069zm2.6245-11.08h5.6413c1.1995 1.1e-5 2.1375-0.124 2.8139-0.37203 0.6764-0.24801 1.1905-0.64484 1.5422-1.1905 0.35172-0.54563 0.52759-1.1386 0.5276-1.779-1.6e-5 -0.93794-0.34048-1.7091-1.0214-2.3133-0.68094-0.60424-1.7564-0.90638-3.2265-0.90639h-6.2771z" /><path
	d="m27.205 0v-17.492h-6.5342v-2.3404h15.72v2.3404h-6.5612v17.492z" /></g></g><g
	transform="matrix(.44122 0 0 .44122 -67.706 32.147)"><g transform="matrix(1.3514,0,0,1,670.48,262.67)"
	fill="#808080"><path d="m2.0292 0v-19.832h2.6245v17.492h9.7674v2.3404z" /><path
	d="m17.451 0v-19.832h7.4405c1.5152 2e-5 2.7304 0.20069 3.6459 0.60201 0.9154 0.40136 1.6324 1.0191 2.151 1.8534 0.51857 0.83426 0.77786 1.7068 0.77788 2.6177-1.6e-5 0.84778-0.23 1.646-0.68994 2.3945-0.45998 0.74858-1.1544 1.3528-2.0834 1.8128 1.1995 0.35174 2.1217 0.9515 2.7665 1.7993 0.64483 0.84778 0.96725 1.8489 0.96727 3.0033-1.7e-5 0.92895-0.19618 1.7925-0.58848 2.5907-0.39234 0.79817-0.8771 1.4137-1.4543 1.8466-0.57722 0.43291-1.301 0.75984-2.1713 0.9808-0.87033 0.22096-1.9368 0.33144-3.1994 0.33144zm2.6245-11.499h4.2885c1.1634 1.2e-5 1.9977-0.07665 2.5027-0.22998 0.66738-0.1984 1.1702-0.52759 1.5084-0.98756 0.33819-0.45995 0.5073-1.0372 0.50731-1.7316-1.3e-5 -0.65836-0.15784-1.2378-0.47349-1.7384-0.31567-0.50053-0.76661-0.84324-1.3528-1.0281-0.58624-0.18487-1.5918-0.27731-3.0168-0.27733h-3.9638zm0 9.1586h4.9378c0.84776 2.4e-6 1.443-0.031564 1.7857-0.094698 0.60425-0.10822 1.1093-0.2886 1.5152-0.54113 0.40583-0.25252 0.73953-0.62004 1.0011-1.1026 0.26153-0.4825 0.3923-1.0394 0.39232-1.6707-1.5e-5 -0.73954-0.18941-1.3821-0.56819-1.9278-0.3788-0.54563-0.90415-0.92893-1.576-1.1499-0.67192-0.22095-1.6392-0.33143-2.9018-0.33144h-4.5861z" /></g></g><g
	transform="matrix(.44122 0 0 .44122 -67.706 32.147)"><g transform="matrix(1.3514,0,0,1,652.15,215.06)"
	fill="#808080"><path d="m2.0292 0v-19.832h2.6245v17.492h9.7674v2.3404z" /><path
	d="m22.606 0v-17.492h-6.5342v-2.3404h15.72v2.3404h-6.5612v17.492z" /></g></g><g
	transform="matrix(.44122 0 0 .44122 -67.706 32.147)" fill="#0000af"
	stroke="#000" stroke-width=".5"><g
	transform="matrix(1.3514,0,0,1,1234,492.44)" fill="#0000af"
	stroke="#000" stroke-width=".43011"><path
	d="m0.23609 0 14.874-20.041-13.116-18.415h6.0596l6.9777 9.8632c1.4515 2.0461 2.4833 3.62 3.0954 4.7217 0.85689-1.399 1.8712-2.8593 3.0429-4.3807l7.7384-10.204h5.5349l-13.509 18.126 14.559 20.33h-6.2957l-9.6796-13.719c-0.54214-0.78694-1.1018-1.6439-1.6788-2.5707-0.85693 1.3991-1.469 2.3609-1.8362 2.8855l-9.6534 13.405z"
	fill="#0000af" stroke="#000" stroke-width=".43011" /></g></g><g
	transform="matrix(.44122 0 0 .44122 -67.706 32.147)"><polygon
	points="964.98 444.12 964.19 444.76 995.07 477.27 1041.9 507 1042.7 506.37 1007.4 467.96"
	fill="#9cff00" /></g><g
	transform="matrix(.44122 0 0 .44122 -67.706 32.147)"><polygon
	points="961.34 506.37 962.13 507 1008.9 477.27 1039.8 443.76 1039 443.12 996.56 467.96"
	fill="#9cff00" /></g><g
	transform="matrix(-.44122 0 0 .44122 817.49 32.077)"><path
	d="m710.21 120.55c-0.86687 1.8642-0.4558 34.064-1.9362 56.894s-6.293 43.789-6.293 43.789l3.2158-0.18082s5.4913-30.534 6.0436-43.258 1.4776-54.204 2.3758-55.946c0.89819-1.7416 0.91038-1.521 0.91038-1.521s-0.12573-0.18116-0.76754-0.62625c-0.64182-0.44509-2.3992-1.0087-2.3992-1.0087s-0.28274-7e-3 -1.1496 1.857z"
	fill="#7f7f7f" /></g><g
	transform="matrix(.44122 0 0 .44122 -67.706 50.153)"><circle cx="650.3" cy="487.6" r="4.057" /></g><g
	transform="matrix(.44122 0 0 .44122 158.9 122.18)"><circle cx="650.3" cy="487.6" r="4.057" /></g><g
	id="guideGroup" transform="matrix(.44122 0 0 .44122 -137.85 -26.021)"><text id="guideText" x="1160.8477"
	y="79.235168" fill="#000000" font-family="sans-serif"
	font-size="26.667px" text-anchor="middle" style="line-height:1.25"
	xml:space="preserve"><tspan x="1160.8477" y="79.235168" font-size="26.667px">guide</tspan></text><path
	id="guidePath" d="m1161.1 607.71v-515" fill="none" stroke="#000"
	stroke-width="3" /></g><g id="backGroup"
	transform="matrix(.44122 0 0 .44122 -213.72 -26.021)"><path id="backPath" d="m1204.6 607.71v-450h-554"
	fill="none" stroke="#000" stroke-width="3" /><text id="backText"
	x="640.18732" y="166.18518" fill="#000000" font-family="sans-serif"
	font-size="26.667px" text-anchor="end" style="line-height:1.25"
	xml:space="preserve"><tspan x="640.18732" y="166.18518" font-size="26.667px">back</tspan></text></g><g
	id="lefttriggerGroup"
	transform="matrix(.44122 0 0 .44122 -137.85 -26.021)"><path id="lefttriggerPath" d="m838.61 281.71h-360"
	fill="none" stroke="#000" stroke-width="3" /><text
	id="lefttriggerText" x="468.21484" y="289.88519" fill="#000000"
	font-family="sans-serif" font-size="26.667px" text-anchor="end"
	style="line-height:1.25" xml:space="preserve"><tspan x="468.21484"
	y="289.88519" font-size="26.667px">lefttrigger</tspan></text></g><g
	id="leftshoulderGroup"
	transform="matrix(.44122 0 0 .44122 -137.85 -26.021)"><path id="leftshoulderPath" d="m798.61 394.71h-320"
	fill="none" stroke="#000" stroke-width="3" /><text
	id="leftshoulderText" x="468.21484" y="402.78519" fill="#000000"
	font-family="sans-serif" font-size="26.667px" text-anchor="end"
	style="line-height:1.25" xml:space="preserve"><tspan x="468.21484"
	y="402.78519" font-size="26.667px">leftshoulder</tspan></text></g><g
	id="leftyGroup" transform="matrix(.44122 0 0 .44122 -137.85 -26.021)"><g id="leftyPath"
	transform="translate(-18.892,132.71)" fill="none" stroke="#000"
	stroke-width="3"><path d="m833.5 565h10v-148.25h-346" /><path
	d="m842 487h-8.5" /></g><text id="leftyText" x="468.21484"
	y="557.33514" fill="#000000" font-family="sans-serif"
	font-size="26.667px" text-anchor="end" style="line-height:1.25"
	xml:space="preserve"><tspan x="468.21484" y="557.33514" font-size="26.667px">lefty</tspan></text></g><g
	id="leftstickGroup"
	transform="matrix(.44122 0 0 .44122 -137.85 -26.021)"><path id="leftstickPath" d="m808.61 655.21v-19h-330"
	fill="none" stroke="#000" stroke-width="3" /><text
	id="leftstickText" x="468.21484" y="644.23517" fill="#000000"
	font-family="sans-serif" font-size="26.667px" text-anchor="end"
	style="line-height:1.25" xml:space="preserve"><tspan x="468.21484"
	y="644.23517" font-size="26.667px">leftstick</tspan></text></g><g
	id="leftxGroup" transform="matrix(.44122 0 0 .44122 -137.85 -26.021)"><g id="leftxPath"
	transform="matrix(0,1,1,0,293.11,-124.79)" fill="none" stroke="#000"
	stroke-width="3"><path d="m791.5 565.5h52v-380" /><path
	d="m842 468.5h-50.5" /></g><text id="leftxText" x="468.21484"
	y="726.58514" fill="#000000" font-family="sans-serif"
	font-size="26.667px" text-anchor="end" style="line-height:1.25"
	xml:space="preserve"><tspan x="468.21484" y="726.58514" font-size="26.667px">leftx</tspan></text></g><g
	id="dpupGroup" transform="matrix(.44122 0 0 .44122 -137.85 -26.021)"><path id="dpupPath"
	d="m983.61 733.71v40l-505 1" fill="none" stroke="#000" stroke-width="3" /><text
	id="dpupText" x="468.21484" y="782.78516" fill="#000000"
	font-family="sans-serif" font-size="26.667px" text-anchor="end"
	style="line-height:1.25" xml:space="preserve"><tspan x="468.21484"
	y="782.78516" font-size="26.667px">dpup</tspan></text></g><g id="dpleftGroup"
	transform="matrix(.44122 0 0 .44122 -137.85 -26.021)"><path id="dpleftPath" d="m913.61 793.71v40h-435"
	fill="none" stroke="#000" stroke-width="3" /><text id="dpleftText"
	x="468.21484" y="841.68518" fill="#000000" font-family="sans-serif"
	font-size="26.667px" text-anchor="end" style="line-height:1.25"
	xml:space="preserve"><tspan x="468.21484" y="841.68518" font-size="26.667px">dpleft</tspan></text></g><g
	id="dpdownGroup" transform="matrix(.44122 0 0 .44122 -137.85 -26.021)"><path id="dpdownPath"
	d="m983.61 842.71v50h-505" fill="none" stroke="#000" stroke-width="3" /><text
	id="dpdownText" x="468.21484" y="900.68518" fill="#000000"
	font-family="sans-serif" font-size="26.667px" text-anchor="end"
	style="line-height:1.25" xml:space="preserve"><tspan x="468.21484"
	y="900.68518" font-size="26.667px">dpdown</tspan></text></g><g id="dprightGroup"
	transform="matrix(.44122 0 0 .44122 -137.85 -26.021)"><path id="dprightPath" d="m1053.6 793.71v159h-575"
	fill="none" stroke="#000" stroke-width="3" /><text
	id="dprightText" x="468.21484" y="960.58514" fill="#000000"
	font-family="sans-serif" font-size="26.667px" text-anchor="end"
	style="line-height:1.25" xml:space="preserve"><tspan x="468.21484"
	y="960.58514" font-size="26.667px">dpright</tspan></text></g><g id="rightyGroup"
	transform="matrix(.44122 0 0 .44122 -137.85 -26.021)"><g id="rightyPath" transform="rotate(180,1075.8,673.36)"
	fill="none" stroke="#000" stroke-width="3"><path
	d="m835 565h10v-171h-537" /><path d="m843.5 488h-8.5" /></g><text
	id="rightyText" x="1856.5898" y="960.58514" fill="#000000"
	font-family="sans-serif" font-size="26.667px" text-anchor="start"
	style="line-height:1.25" xml:space="preserve"><tspan x="1856.5898"
	y="960.58514" font-size="26.667px">righty</tspan></text></g><g
	id="rightstickGroup"
	transform="matrix(.44122 0 0 .44122 -137.85 -26.021)"><path id="rightstickPath" d="m1322.1 830.21v14.5h521.5"
	fill="none" stroke="#000" stroke-width="3" /><text
	id="rightstickText" x="1856.5898" y="852.68518" fill="#000000"
	font-family="sans-serif" font-size="26.667px" text-anchor="start"
	style="line-height:1.25" xml:space="preserve"><tspan x="1856.5898"
	y="852.68518" font-size="26.667px">rightstick</tspan></text></g><g
	id="rightxGroup" transform="matrix(.44122 0 0 .44122 -137.85 -26.021)"><g id="rightxPath"
	transform="matrix(0,-1,-1,0,1837.6,1610.2)" fill="none" stroke="#000"
	stroke-width="3"><path
	d="m791.5 562h69.75c0.0438-125.5-0.43781-442.5-0.75-568" /><path
	d="m859.75 463h-68.25" /></g><text id="rightxText" x="1856.5898"
	y="757.68518" fill="#000000" font-family="sans-serif"
	font-size="26.667px" text-anchor="start" style="line-height:1.25"
	xml:space="preserve"><tspan x="1856.5898" y="757.68518" font-size="26.667px">rightx</tspan></text></g><g
	id="aGroup" transform="matrix(.44122 0 0 .44122 -137.85 -26.021)"><path id="aPath" d="m1547.6 669.21h296"
	fill="none" stroke="#000" stroke-width="3" /><text id="aText"
	x="1856.5898" y="677.08514" fill="#000000" font-family="sans-serif"
	font-size="26.667px" text-anchor="start" style="line-height:1.25"
	xml:space="preserve"><tspan x="1856.5898" y="677.08514" font-size="26.667px">a</tspan></text></g><g
	id="bGroup" transform="matrix(.44122 0 0 .44122 -137.85 -26.021)"><path id="bPath" d="m1639.6 593.21h204"
	fill="none" stroke="#000" stroke-width="3" /><text id="bText"
	x="1856.5898" y="601.08514" fill="#000000" font-family="sans-serif"
	font-size="26.667px" text-anchor="start" style="line-height:1.25"
	xml:space="preserve"><tspan x="1856.5898" y="601.08514" font-size="26.667px">b</tspan></text></g><g
	id="yGroup" transform="matrix(.44122 0 0 .44122 -137.85 -26.021)"><path id="yPath" d="m1549.6 526.71h294"
	fill="none" stroke="#000" stroke-width="3" /><text id="yText"
	x="1856.5898" y="534.73517" fill="#000000" font-family="sans-serif"
	font-size="26.667px" text-anchor="start" style="line-height:1.25"
	xml:space="preserve"><tspan x="1856.5898" y="534.73517" font-size="26.667px">y</tspan></text></g><g
	id="xGroup" transform="matrix(.44122 0 0 .44122 -137.83 -26.021)"><path id="xPath"
	d="m1418.6 580.71v-112h424.97" fill="none" stroke="#000"
	stroke-width="3" /><text id="xText" x="1856.5623" y="476.63519"
	fill="#000000" font-family="sans-serif" font-size="26.667px"
	text-anchor="start" style="line-height:1.25" xml:space="preserve"><tspan
	x="1856.5623" y="476.63519" font-size="26.667px">x</tspan></text></g><g
	id="rightshoulderGroup"
	transform="matrix(.44122 0 0 .44122 -137.85 -26.021)"><path id="rightshoulderPath" d="m1523.6 394.71h320"
	fill="none" stroke="#000" stroke-width="3" /><text
	id="rightshoulderText" x="1856.5898" y="402.78519" fill="#000000"
	font-family="sans-serif" font-size="26.667px" text-anchor="start"
	style="line-height:1.25" xml:space="preserve"><tspan x="1856.5898"
	y="402.78519" font-size="26.667px">rightshoulder</tspan></text></g><g
	id="righttriggerGroup"
	transform="matrix(.44122 0 0 .44122 -137.85 -26.021)"><path id="righttriggerPath" d="m1483.6 281.71h360"
	fill="none" stroke="#000" stroke-width="3" /><text
	id="righttriggerText" x="1856.5898" y="289.88519" fill="#000000"
	font-family="sans-serif" font-size="26.667px" text-anchor="start"
	style="line-height:1.25" xml:space="preserve"><tspan x="1856.5898"
	y="289.88519" font-size="26.667px">righttrigger</tspan></text></g><g
	id="startGroup" transform="matrix(.44122 0 0 .44122 -137.85 -26.021)"><path id="startPath"
	d="m1289.6 607.71v-450h554" fill="none" stroke="#000" stroke-width="3" /><text
	id="startText" x="1856.5898" y="166.18517" fill="#000000"
	font-family="sans-serif" font-size="26.667px" text-anchor="start"
	style="line-height:1.25" xml:space="preserve"><tspan x="1856.5898"
	y="166.18517" font-size="26.667px">start</tspan></text></g></svg>
