<?xml version="1.0" encoding="UTF-8" standalone="no"?>
<svg version="1.0" width="1024" height="1024"
	viewBox="0 0 1024 1024" preserveAspectRatio="xMidYMid" id="svg7"
	xmlns:xlink="http://www.w3.org/1999/xlink"
	xmlns="http://www.w3.org/2000/svg"
	xmlns:svg="http://www.w3.org/2000/svg">
	<defs id="defs7">
		<linearGradient id="linearGradient46">
			<stop style="stop-color:#448ade;stop-opacity:1;"
				offset="0.49718574" id="stop46" />
			<stop style="stop-color:#346aaa;stop-opacity:1;" offset="1"
				id="stop47" />
		</linearGradient>
		<filter style="color-interpolation-filters:sRGB" id="filter46"
			x="-0.0062164872" y="-0.0055780689" width="1.012433"
			height="1.0111561">
			<feGaussianBlur stdDeviation="1.7710369"
				id="feGaussianBlur46" />
		</filter>
		<radialGradient xlink:href="#linearGradient46"
			id="radialGradient48" cx="512.10962" cy="515.36609" fx="512.10962"
			fy="515.36609" r="512" gradientUnits="userSpaceOnUse"
			spreadMethod="pad"
			gradientTransform="translate(-0.10961834,-3.3660882)" />
	</defs>
	<metadata id="metadata1">
		Created by potrace 1.12, written by Peter
		Selinger 2001-2015
	</metadata>
	<circle
		style="fill:url(#radialGradient48);fill-opacity:1;stroke:#000000;stroke-width:0.814882"
		id="background" cx="512" cy="512" r="511.59256" />
	<g id="shadow"
		transform="matrix(1.1154856,0,0,1.1154856,143.51928,104.60445)"
		style="opacity:0.3;mix-blend-mode:normal;fill:#000000;fill-opacity:1;stroke:none;filter:url(#filter46)">
		<path
			style="display:inline;fill:#000000;fill-opacity:1;stroke:none;stroke-width:0.1"
			d="m 341.86084,0 c 1.3,0 9.4002,10.000496 14.2002,17.500488 13.09998,20.19998 22.19981,46.099544 27.7998,78.499512 2,11.89999 3.80049,46.20003 4.00049,79.5 v 10.00049 l 8.90039,5.20019 8.79932,5.19873 5.2998,21.80127 c 7.29999,30.09997 17.2999,69.30001 19.8999,78 L 432.96094,303 h 27.3999 27.30029 l 3.90088,-6 c 2.1,-3.3 5.59922,-8.89991 7.69922,-12.3999 2.2,-3.6 5.00029,-6.9 6.30029,-7.5 1.6,-0.7 18.69945,-1.1001 51.89942,-1.1001 h 49.60107 l 2.69971,2.90039 c 1.5,1.6 3.79912,4.89893 5.09912,7.39893 2.3,4.39999 2.49991,4.50136 7.8999,4.90136 6.8,0.6 9.10108,2.99952 9.10108,9.49952 0,4.29999 0.39952,4.9002 7.99951,12.70019 23.79997,23.99998 38.70049,57.39965 43.00049,96.09961 0.8,6.89999 0.9998,42.40056 0.7998,113.50049 l -0.30029,103.5 -2.29981,7.29931 c -8.59999,27.79998 -29.40061,49.19952 -54.60058,55.99952 -7.49999,1.99999 -23.09913,2.20029 -30.59912,0.30029 -13.59999,-3.4 -26.80001,-11.89894 -34.5,-22.39893 -5.3,-7.19999 -5.80092,-8.00123 -38.40088,-71.70117 -29.99997,-58.49994 -33.79893,-65.19961 -35.89893,-64.59961 -5.99999,1.8 -16.80059,2.79981 -24.60058,2.29981 -17.69999,-1.1 -32.50031,-7.99943 -46.8003,-21.89942 -3.69999,-3.59999 -6.99931,-6.3 -7.29931,-6 -0.3,0.4 -0.30039,15.69973 0.0996,34.19971 0.6,30.99997 0.8001,33.7 2.60009,36 1.1,1.4 7.89962,8.6005 15.09961,16.00049 19.29998,19.79998 53.8005,55.89912 58.00049,60.59912 l 3.7002,4.1001 v 20.90039 c 0,19.09998 -0.20098,21.19961 -2.00098,24.09961 L 483.86133,705 h -25.59961 -25.70068 l -15.49952,-16.00049 c -8.49999,-8.79999 -15.90078,-15.99902 -16.30078,-15.99902 -0.5,0 -0.89941,1.09902 -0.89941,2.49902 V 678 H 379.36084 358.86182 V 664.5 651 h -3.3003 c -1.79999,0 -3.8,0.49971 -4.5,1.19971 -0.9,0.9 -1.1997,13.20081 -1.1997,49.30078 v 48 l -3.7002,6.29883 c -2,3.39999 -4.00078,6.20068 -4.30078,6.20068 -0.3,0 -2.29932,-2.80069 -4.29932,-6.20068 l -3.70019,-6.29883 v -48 c 0,-36.09997 -0.29971,-48.40078 -1.19971,-49.30078 -0.7,-0.7 -2.7,-1.19971 -4.5,-1.19971 h -3.30029 v 13.5 13.5 h -20.50049 -20.49902 v -2.50049 c 0,-1.4 -0.40088,-2.49902 -0.90088,-2.49902 -0.4,0 -7.79933,7.19903 -16.29932,15.99902 L 251.16211,705 h -25.70068 -25.59961 l -2.00098,-3.30029 c -1.8,-2.9 -1.99951,-4.99963 -1.99951,-24.09961 v -20.90039 l 3.70019,-4.1001 c 4.2,-4.7 38.70051,-40.79914 58.00049,-60.59912 C 264.762,584.6005 271.56162,577.4 272.66162,576 c 1.8,-2.3 2.0001,-5.00003 2.6001,-36 0.4,-18.49998 0.39961,-33.79971 0.0996,-34.19971 -0.3,-0.3 -3.59932,2.40001 -7.29932,6 -14.29998,13.89999 -29.10031,20.79942 -46.80029,21.89942 -7.79999,0.5 -18.60059,-0.49981 -24.60059,-2.29981 -2.1,-0.6 -5.90042,6.09967 -35.90039,64.59961 -32.59997,63.69994 -33.09942,64.50118 -38.39941,71.70117 -7.69999,10.49999 -20.90001,18.99893 -34.500002,22.39893 -7.499992,1.9 -23.100593,1.6997 -30.600586,-0.30029 -25.199975,-6.8 -45.99913,-28.19954 -54.5991209,-55.99952 l -2.29980469,-7.29931 -0.30029297,-103.5 C -0.13847636,451.90056 0.06132892,416.39999 0.86132813,409.5 5.1613238,370.80004 20.06184,337.40037 43.861816,313.40039 c 7.599993,-7.79999 7.999512,-8.4002 7.999512,-12.70019 0,-6.5 2.299616,-8.89952 9.09961,-9.49952 5.399994,-0.4 5.599904,-0.50137 7.899902,-4.90136 1.299999,-2.5 3.600587,-5.79893 5.100586,-7.39893 L 76.661133,276 h 49.599607 c 33.19997,0 50.30088,0.4001 51.90088,1.1001 1.3,0.6 4.1003,3.9 6.30029,7.5 2.1,3.49999 5.59922,9.0999 7.69922,12.3999 l 3.90088,6 h 27.29883 27.3999 l 2.2002,-7.29932 c 2.59999,-8.69999 12.59991,-47.90003 19.8999,-78 l 5.30127,-21.80127 8.79932,-5.19873 8.90039,-5.20019 V 175.5 c 0.2,-33.29997 1.99902,-67.60001 3.99902,-79.5 C 306.56083,56.800039 319.26213,25.600175 336.66211,5.2001953 339.06211,2.4001981 341.46084,0 341.86084,0 Z"
			id="shadow_gamepad_plane" />
		<g id="shadow_engines"
			transform="matrix(1.017424,0,0,1.1918477,-5.9536299,-136.69147)"
			style="display:inline;fill:#000000;fill-opacity:1;stroke:none">
			<path
				style="fill:#000000;fill-opacity:1;stroke:none;stroke-width:0.100335"
				d="m 358.5969,687 h 20.13341 20.13341 v 9.89941 c 0,9.49999 -0.0994,10.00108 -2.21345,10.60108 -1.3087,0.4 -3.32319,1.69893 -4.63188,2.89892 -2.21473,1.9 -3.52236,2.10059 -14.99867,2.10059 -10.8723,0 -12.68475,-0.20029 -13.49011,-1.80029 -0.60402,-0.9 -1.91311,-1.69922 -2.91981,-1.69922 -1.91272,0 -2.0129,-0.80099 -2.0129,-11.00098 z"
				id="shadow_engine_right" />
			<path
				style="fill:#000000;fill-opacity:1;stroke:none;stroke-width:0.100373"
				d="m 284.8522,686.99964 h 20.15047 20.14898 v 10.99965 c 0,10.20015 -0.10024,11.00115 -2.01445,11.00115 -1.00747,0 -2.31759,0.79923 -2.92207,1.69924 -0.80598,1.60003 -2.61985,1.80032 -13.50054,1.80032 -11.48519,0 -12.79384,-0.20059 -15.01029,-2.10062 -1.30972,-1.20001 -3.32466,-2.49896 -4.53363,-2.89897 -2.21645,-0.6 -2.31847,-1.10109 -2.31847,-10.60123 z"
				id="shadow_engine_left" />
		</g>
	</g>
	<g id="logo"
		transform="matrix(1.1154856,0,0,1.1154856,130.54872,83.633898)"
		style="display:inline">
		<path style="fill:#000000;stroke:none;stroke-width:0.1"
			d="m 341.86084,0 c 1.3,0 9.4002,10.000496 14.2002,17.500488 13.09998,20.19998 22.19981,46.099544 27.7998,78.499512 2,11.89999 3.80049,46.20003 4.00049,79.5 v 10.00049 l 8.90039,5.20019 8.79932,5.19873 5.2998,21.80127 c 7.29999,30.09997 17.2999,69.30001 19.8999,78 L 432.96094,303 h 27.3999 27.30029 l 3.90088,-6 c 2.1,-3.3 5.59922,-8.89991 7.69922,-12.3999 2.2,-3.6 5.00029,-6.9 6.30029,-7.5 1.6,-0.7 18.69945,-1.1001 51.89942,-1.1001 h 49.60107 l 2.69971,2.90039 c 1.5,1.6 3.79912,4.89893 5.09912,7.39893 2.3,4.39999 2.49991,4.50136 7.8999,4.90136 6.8,0.6 9.10108,2.99952 9.10108,9.49952 0,4.29999 0.39952,4.9002 7.99951,12.70019 23.79997,23.99998 38.70049,57.39965 43.00049,96.09961 0.8,6.89999 0.9998,42.40056 0.7998,113.50049 l -0.30029,103.5 -2.29981,7.29931 c -8.59999,27.79998 -29.40061,49.19952 -54.60058,55.99952 -7.49999,1.99999 -23.09913,2.20029 -30.59912,0.30029 -13.59999,-3.4 -26.80001,-11.89894 -34.5,-22.39893 -5.3,-7.19999 -5.80092,-8.00123 -38.40088,-71.70117 -29.99997,-58.49994 -33.79893,-65.19961 -35.89893,-64.59961 -5.99999,1.8 -16.80059,2.79981 -24.60058,2.29981 -17.69999,-1.1 -32.50031,-7.99943 -46.8003,-21.89942 -3.69999,-3.59999 -6.99931,-6.3 -7.29931,-6 -0.3,0.4 -0.30039,15.69973 0.0996,34.19971 0.6,30.99997 0.8001,33.7 2.60009,36 1.1,1.4 7.89962,8.6005 15.09961,16.00049 19.29998,19.79998 53.8005,55.89912 58.00049,60.59912 l 3.7002,4.1001 v 20.90039 c 0,19.09998 -0.20098,21.19961 -2.00098,24.09961 L 483.86133,705 h -25.59961 -25.70068 l -15.49952,-16.00049 c -8.49999,-8.79999 -15.90078,-15.99902 -16.30078,-15.99902 -0.5,0 -0.89941,1.09902 -0.89941,2.49902 V 678 H 379.36084 358.86182 V 664.5 651 h -3.3003 c -1.79999,0 -3.8,0.49971 -4.5,1.19971 -0.9,0.9 -1.1997,13.20081 -1.1997,49.30078 v 48 l -3.7002,6.29883 c -2,3.39999 -4.00078,6.20068 -4.30078,6.20068 -0.3,0 -2.29932,-2.80069 -4.29932,-6.20068 l -3.70019,-6.29883 v -48 c 0,-36.09997 -0.29971,-48.40078 -1.19971,-49.30078 -0.7,-0.7 -2.7,-1.19971 -4.5,-1.19971 h -3.30029 v 13.5 13.5 h -20.50049 -20.49902 v -2.50049 c 0,-1.4 -0.40088,-2.49902 -0.90088,-2.49902 -0.4,0 -7.79933,7.19903 -16.29932,15.99902 L 251.16211,705 h -25.70068 -25.59961 l -2.00098,-3.30029 c -1.8,-2.9 -1.99951,-4.99963 -1.99951,-24.09961 v -20.90039 l 3.70019,-4.1001 c 4.2,-4.7 38.70051,-40.79914 58.00049,-60.59912 C 264.762,584.6005 271.56162,577.4 272.66162,576 c 1.8,-2.3 2.0001,-5.00003 2.6001,-36 0.4,-18.49998 0.39961,-33.79971 0.0996,-34.19971 -0.3,-0.3 -3.59932,2.40001 -7.29932,6 -14.29998,13.89999 -29.10031,20.79942 -46.80029,21.89942 -7.79999,0.5 -18.60059,-0.49981 -24.60059,-2.29981 -2.1,-0.6 -5.90042,6.09967 -35.90039,64.59961 -32.59997,63.69994 -33.09942,64.50118 -38.39941,71.70117 -7.69999,10.49999 -20.90001,18.99893 -34.500002,22.39893 -7.499992,1.9 -23.100593,1.6997 -30.600586,-0.30029 -25.199975,-6.8 -45.99913,-28.19954 -54.5991209,-55.99952 l -2.29980469,-7.29931 -0.30029297,-103.5 C -0.13847636,451.90056 0.06132892,416.39999 0.86132813,409.5 5.1613238,370.80004 20.06184,337.40037 43.861816,313.40039 c 7.599993,-7.79999 7.999512,-8.4002 7.999512,-12.70019 0,-6.5 2.299616,-8.89952 9.09961,-9.49952 5.399994,-0.4 5.599904,-0.50137 7.899902,-4.90136 1.299999,-2.5 3.600587,-5.79893 5.100586,-7.39893 L 76.661133,276 h 49.599607 c 33.19997,0 50.30088,0.4001 51.90088,1.1001 1.3,0.6 4.1003,3.9 6.30029,7.5 2.1,3.49999 5.59922,9.0999 7.69922,12.3999 l 3.90088,6 h 27.29883 27.3999 l 2.2002,-7.29932 c 2.59999,-8.69999 12.59991,-47.90003 19.8999,-78 l 5.30127,-21.80127 8.79932,-5.19873 8.90039,-5.20019 V 175.5 c 0.2,-33.29997 1.99902,-67.60001 3.99902,-79.5 C 306.56083,56.800039 319.26213,25.600175 336.66211,5.2001953 339.06211,2.4001981 341.46084,0 341.86084,0 Z"
			id="gamepad_plane" />
		<g id="engines"
			transform="matrix(1.017424,0,0,1.1918477,-5.9536299,-136.69147)">
			<path style="fill:#000000;stroke:none;stroke-width:0.100335"
				d="m 358.5969,687 h 20.13341 20.13341 v 9.89941 c 0,9.49999 -0.0994,10.00108 -2.21345,10.60108 -1.3087,0.4 -3.32319,1.69893 -4.63188,2.89892 -2.21473,1.9 -3.52236,2.10059 -14.99867,2.10059 -10.8723,0 -12.68475,-0.20029 -13.49011,-1.80029 -0.60402,-0.9 -1.91311,-1.69922 -2.91981,-1.69922 -1.91272,0 -2.0129,-0.80099 -2.0129,-11.00098 z"
				id="engine_right" />
			<path style="fill:#000000;stroke:none;stroke-width:0.100373"
				d="m 284.8522,686.99964 h 20.15047 20.14898 v 10.99965 c 0,10.20015 -0.10024,11.00115 -2.01445,11.00115 -1.00747,0 -2.31759,0.79923 -2.92207,1.69924 -0.80598,1.60003 -2.61985,1.80032 -13.50054,1.80032 -11.48519,0 -12.79384,-0.20059 -15.01029,-2.10062 -1.30972,-1.20001 -3.32466,-2.49896 -4.53363,-2.89897 -2.21645,-0.6 -2.31847,-1.10109 -2.31847,-10.60123 z"
				id="engine_left" />
		</g>
		<g id="stick_right">
			<path style="fill:#1a1a1a;stroke:none;stroke-width:0.1"
				d="m 465.87451,399.3252 c -6.41249,-0.325 -12.8127,0.0248 -17.01269,1.1748 -8.69999,2.4 -19.40079,8.10001 -25.30078,13.5 -5,4.6 -11.49961,12.69932 -10.59961,13.29932 0.2,0.2 1.70029,1.30049 3.30029,2.50048 l 2.79932,2.2002 7.5,-7.00049 c 17.49998,-16.29998 38.50031,-20.09999 58.80029,-10.5 7.09999,3.4 17.30078,13.20099 20.80078,20.00098 4.59999,9.19999 5.99902,15.79894 5.49902,26.89892 -0.3,8.5 -0.90029,11.10108 -3.30029,16.60108 -2.4,5.19999 -9.39991,15.3 -12.3999,18 -3.2,2.7 -3.4001,4.09951 -1.1001,6.49951 1.3,1.4 3.1001,2.50049 4.1001,2.50049 2.5,0 13.50029,-12.29981 16.80029,-18.79981 4.8,-9.39999 6.39951,-16.6002 6.49951,-27.70019 0.1,-16.39999 -5.69942,-30.50099 -17.39941,-42.50098 -6.3,-6.39999 -12.39943,-10.29883 -21.89942,-13.79883 -4.24999,-1.54999 -10.6749,-2.55049 -17.0874,-2.87548 z"
				id="stick_background_right" />
			<path style="fill:#666666;stroke:none;stroke-width:0.1"
				d="m 461.521,423.54199 c -12.98437,0.33281 -24.53439,7.68371 -31.35938,20.65869 -2.5,4.8 -2.80078,6.29933 -2.80078,14.79932 0.1,10.89999 1.9001,15.69942 8.6001,23.39941 16.19998,18.39999 47.1005,14.10047 58.00049,-7.99951 9.39999,-19.09998 0.29988,-42.39981 -19.1001,-48.7998 -4.525,-1.5 -9.01221,-2.16905 -13.34033,-2.05811 z"
				id="thumb_right" />
		</g>
		<g id="stick_left">
			<path style="fill:#1a1a1a;stroke:none;stroke-width:0.1"
				d="m 221.54883,399.1626 c -4.8875,-0.0875 -9.83799,0.18789 -13.18799,0.83789 -11.39999,2.3 -24.69932,9.8001 -31.29932,17.6001 -10.89999,12.99998 -15.70058,25.49991 -15.60058,40.8999 0.1,11.09999 1.70098,18.3002 6.50097,27.70019 3.3,6.5 14.29883,18.79981 16.79883,18.79981 1,0 2.8001,-1.10049 4.1001,-2.50049 2.3,-2.4 2.0999,-3.79951 -1.1001,-6.49951 -2.99999,-2.7 -9.9999,-12.80001 -12.3999,-18 -2.4,-5.5 -2.99883,-8.10108 -3.29883,-16.60108 -0.5,-11.09998 0.89903,-17.69893 5.49903,-26.89892 3.49999,-6.79999 13.70078,-16.60098 20.80078,-20.00098 20.29998,-9.59999 41.30031,-5.79998 58.80029,10.5 l 7.5,7.00049 2.79932,-2.2002 c 1.59999,-1.19999 3.10029,-2.30048 3.30029,-2.50048 0.9,-0.6 -5.59962,-8.69932 -10.59961,-13.29932 -6.09999,-5.59999 -16.9003,-11.2 -25.80029,-13.5 -3.1,-0.8 -7.9255,-1.2499 -12.81299,-1.3374 z"
				id="stick_background_left" />
			<path style="fill:#666666;stroke:none;stroke-width:0.1"
				d="m 221.02148,423.54785 c -13.26561,-0.19219 -25.20938,6.80246 -31.35937,19.25244 -3,6 -3.30029,7.50021 -3.30029,15.7002 0,8.19999 0.30029,9.7002 3.30029,15.70019 5.49999,11.29999 15.70001,18.3 28.5,19.5 15.39998,1.4 28.89932,-6.3005 35.79932,-20.50048 1.89999,-3.9 2.29941,-6.40021 2.39941,-14.2002 0,-8.99999 -0.19991,-9.89981 -3.3999,-15.7998 -4.2,-7.7 -11.49991,-14.39952 -18.3999,-16.99952 -4.55,-1.72499 -9.11769,-2.58877 -13.53956,-2.65283 z"
				id="thumb_left" />
		</g>
		<g id="face">
			<path
				style="fill:#00ff00;fill-opacity:1;stroke:none;stroke-width:0.1"
				d="m 581.7832,420.08643 c -6.32812,-0.15469 -11.89658,2.26289 -16.62158,7.21289 -8.69999,9.19999 -8.50087,21.80127 0.59912,30.80127 6.4,6.49999 13.60109,8.29931 22.60108,5.79931 8.09999,-2.3 15.49951,-12.39991 15.49951,-21.3999 0,-8.99999 -7.39952,-19.0999 -15.49951,-21.3999 -2.275,-0.625 -4.46924,-0.96211 -6.57862,-1.01367 z"
				id="face_down" />
			<path
				style="fill:#ff0000;fill-opacity:1;stroke:none;stroke-width:0.1"
				d="m 618.78369,384.08643 c -6.32812,-0.15469 -11.89659,2.26289 -16.62158,7.21289 -8.69999,9.19999 -8.50087,21.80127 0.59912,30.80127 6.39999,6.49999 13.59962,8.29931 22.59961,5.79931 8.09999,-2.3 15.50098,-12.39991 15.50098,-21.3999 0,-8.99999 -7.40099,-19.0999 -15.50098,-21.3999 -2.275,-0.625 -4.46778,-0.96211 -6.57715,-1.01367 z"
				id="face_right" />
			<path
				style="fill:#0000ff;fill-opacity:1;stroke:none;stroke-width:0.1"
				d="m 544.78271,384.08643 c -6.32811,-0.15469 -11.89658,2.26289 -16.62158,7.21289 -8.69999,9.19999 -8.4994,21.80127 0.60059,30.80127 6.39999,6.49999 13.59962,8.29931 22.59961,5.79931 8.09999,-2.3 15.49951,-12.39991 15.49951,-21.3999 0,-8.99999 -7.39952,-19.0999 -15.49951,-21.3999 -2.275,-0.625 -4.46924,-0.96211 -6.57862,-1.01367 z"
				id="face_left" />
			<path
				style="fill:#ffff00;fill-opacity:1;stroke:none;stroke-width:0.1"
				d="m 581.7832,346.08545 c -6.32812,-0.15469 -11.89658,2.26436 -16.62158,7.21435 -8.69999,9.2 -8.50087,21.79982 0.59912,30.79981 6.4,6.49999 13.60109,8.30078 22.60108,5.80078 8.09999,-2.3 15.49951,-12.39991 15.49951,-21.3999 0,-8.99999 -7.39952,-19.09991 -15.49951,-21.3999 -2.275,-0.625 -4.46924,-0.96358 -6.57862,-1.01514 z"
				id="face_up" />
		</g>
		<g id="dpad">
			<path style="fill:#666666;stroke:none;stroke-width:0.1"
				d="m 103.16162,345 c -24.399978,0 -26.699513,0.39952 -28.999511,4.99951 -0.799999,1.6 -1.300781,6.70108 -1.300781,13.60108 0,14.39998 0.299692,14.10009 -15.300293,14.60009 -11.599988,0.3 -11.899807,0.39962 -14.299805,3.09961 -2.399997,2.8 -2.399414,2.99983 -2.399414,24.79981 v 22.1001 l 2.898926,2.90039 c 2.899997,2.79999 3.200792,2.89892 13.300781,2.89892 6.299994,0 11.299807,0.50078 12.799805,1.30078 2.399998,1.2 2.500001,1.70011 3,13.1001 0.5,11.39999 0.600296,11.9002 3.300293,14.2002 C 78.961618,465.00058 79.061739,465 102.76172,465 h 23.79932 l 2.6997,-2.6001 c 2.5,-2.6 2.6001,-3.19932 2.6001,-13.29931 0,-5.8 0.40127,-11.10118 0.80127,-11.70118 1.7,-2.49999 5.59923,-3.3999 15.19922,-3.3999 9.89999,0 10.2001,-0.0989 13.1001,-2.89892 l 2.90039,-2.90039 v -22.19971 -22.20117 l -2.90039,-2.89893 c -2.9,-2.9 -3.09943,-2.90039 -14.39942,-2.90039 -14.89998,0 -14.70117,0.30008 -14.70117,-15.3999 0,-11.69999 0.001,-11.79971 -2.89893,-14.69971 L 126.06152,345 Z"
				id="dpad_background" />
			<path style="fill:#000000;stroke:none;stroke-width:0.1"
				d="m 102.26074,417.89941 6.80127,6.80127 6.79981,6.69873 v 9.3003 V 450 h -13.5 -13.500004 v -9.09961 -9.10107 l 6.700196,-6.89942 z"
				id="dpad_down" />
			<path style="fill:#000000;stroke:none;stroke-width:0.1"
				d="m 127.36084,392.90039 10.5,0.30029 10.5,0.29883 0.30029,5.00098 c 0.2,2.7 0.0997,8.69971 -0.30029,13.19971 L 147.66211,420 h -10.5 -10.5 l -6.40137,-6.7002 -6.49951,-6.70019 6.79981,-6.79981 z"
				id="dpad_right" />
			<path style="fill:#000000;stroke:none;stroke-width:0.1"
				d="m 67.26123,393 h 10.100098 l 6.799805,6.60059 c 3.699996,3.59999 6.700195,6.69941 6.700195,6.89941 0,0.2 -3.000199,3.29942 -6.700195,6.89941 L 77.361328,420 H 67.26123 57.161133 l -0.700195,-3.09961 c -0.8,-4 -0.8,-20.20078 0,-22.30078 C 56.960937,393.29961 58.861239,393 67.26123,393 Z"
				id="dpad_left" />
			<path style="fill:#000000;stroke:none;stroke-width:0.1"
				d="m 102.17432,360.08789 c 5.56249,-0.0125 11.13642,0.1627 12.08642,0.5127 1.3,0.5 1.60108,2.39922 1.60108,10.69921 v 10.00049 l -6.20069,6.59912 c -3.49999,3.6 -6.80039,6.70088 -7.40039,6.90088 -0.5,0.1 -3.799708,-2.60068 -7.199705,-6.20068 l -6.199219,-6.3999 v -10.5 c 0,-7.5 0.399318,-10.69951 1.299317,-10.99951 0.899999,-0.4 6.450688,-0.59981 12.013187,-0.61231 z"
				id="dpad_up" />
		</g>
		<g id="canopy">
			<path
				style="fill:#2094f1;fill-opacity:1;stroke:none;stroke-width:0.1"
				d="m 341.86084,256.99951 c -16.39998,0 -21,0.30078 -21,1.30078 0,3.3 5.5,29.79933 9,43.29932 4.89999,18.89998 10.8,37.40039 12,37.40039 1.2,0 7.1,-18.50041 12,-37.40039 3.5,-13.49999 9,-39.99932 9,-43.29932 0,-1 -4.60002,-1.30078 -21,-1.30078 z"
				id="canopy_aft" />
			<path
				style="fill:#2094f1;fill-opacity:1;stroke:none;stroke-width:0.1"
				d="M 314.86084,202.99951 V 223.5 l 3,20.50049 h 24 24 l 3,-20.50049 v -20.50049 h -27 z"
				id="canopy_center" />
			<path
				style="fill:#2094f1;fill-opacity:1;stroke:none;stroke-width:0.1"
				d="m 341.86084,111.09961 c -9.99999,0 -18.19874,5.5002 -23.19873,15.70019 l -3.30029,6.7002 -0.3003,28.70068 -0.30029,28.79883 h 27.09961 27.10107 l -0.30029,-28.79883 -0.30029,-28.70068 -3.30029,-6.7002 c -3.5,-7.19999 -8.70001,-12.09941 -15,-14.39941 -2,-0.7 -5.7002,-1.30078 -8.2002,-1.30078 z"
				id="canopy_front" />
		</g>
	</g>
</svg>
